# File created by Blade
# Date/Time:  Thu Sep 25 15:55:53 2014
# Frame Rate: 120.000 fps
#------------------------------------------------------
:FULLY-SPECIFIED
:DEGREES
660
root -4.559256 34.485954 0.433520 58.418881 11.031554 24.695304
Spine -26.788466 -9.941488 4.541808
Head -47.184361 -2.885560 -5.117204
LeftShoulder 2.131830 22.444889 9.780670
LeftArm 34.788762 32.102391 -49.228532
LeftForeArm 7.956279 0.000000 19.119416
LeftHand -22.358191 -0.000000 1.895086
LeftHandThumb1 -26.253704 0.000000 33.147579
RightShoulder -12.062051 8.014390 -28.637800
RightArm -17.419619 0.111267 65.310837
RightForeArm -16.961199 -0.000000 35.590867
RightHand -1.477170 -0.000000 -2.492713
RightHandThumb1 -24.326973 -0.000000 -32.862282
LeftUpLeg 12.375437 13.246436 12.127945
LeftLeg 9.549681 -0.000000 -0.000000
LeftFoot 30.226769 11.023093 -27.584515
LeftToeBase 8.095500 -0.000000 -0.000000
RightUpLeg -57.716092 -22.805199 -2.013638
RightLeg 10.508862 -0.000000 -0.000000
RightFoot -6.748198 -4.206442 -4.951137
RightToeBase -5.314443 -0.000000 0.000000
661
root -4.544494 34.449888 0.470778 57.609308 10.946084 24.351172
Spine -26.112389 -9.369873 4.130670
Head -46.688506 -3.308942 -4.715161
LeftShoulder 1.951576 22.592497 10.006339
LeftArm 34.803581 32.272134 -49.573138
LeftForeArm 7.942564 -0.000000 19.123467
LeftHand -22.329816 -0.000000 2.075754
LeftHandThumb1 -26.253704 0.000000 33.147579
RightShoulder -11.866231 8.320520 -28.593926
RightArm -16.809158 -0.368829 65.739259
RightForeArm -17.186323 -0.000000 36.014979
RightHand -1.430840 0.000000 -2.657719
RightHandThumb1 -24.326973 -0.000000 -32.862282
LeftUpLeg 11.497156 13.665549 10.812983
LeftLeg 7.868272 -0.000000 -0.000000
LeftFoot 27.978386 10.310578 -29.374928
LeftToeBase 8.111905 -0.000000 -0.000000
RightUpLeg -56.896129 -22.330203 -2.335403
RightLeg 10.684387 -0.000000 -0.000000
RightFoot -6.906991 -4.601786 -5.227171
RightToeBase -5.568090 -0.000000 0.000000
662
root -4.532621 34.415810 0.499399 56.832398 10.870247 24.061521
Spine -25.461914 -8.829489 3.691897
Head -46.176170 -3.799903 -4.311934
LeftShoulder 1.800358 22.620192 10.254121
LeftArm 34.664133 32.382548 -50.113974
LeftForeArm 8.031464 -0.000000 19.193862
LeftHand -22.372717 -0.000000 2.050004
LeftHandThumb1 -26.253704 0.000000 33.147579
RightShoulder -11.696409 8.583861 -28.556905
RightArm -16.220304 -0.813371 66.255168
RightForeArm -17.808504 -0.000000 36.492695
RightHand -1.756994 -0.000000 -3.228513
RightHandThumb1 -24.326973 -0.000000 -32.862282
LeftUpLeg 10.490616 14.098777 9.502535
LeftLeg 6.381208 -0.000000 -0.000000
LeftFoot 25.837910 9.853910 -30.813415
LeftToeBase 6.787422 -0.000000 -0.000000
RightUpLeg -56.071024 -21.851914 -2.713643
RightLeg 10.798564 -0.000000 -0.000000
RightFoot -7.104894 -4.943220 -5.310450
RightToeBase -5.631067 -0.000000 0.000000
663
root -4.519946 34.376521 0.525075 55.946135 10.789587 23.802407
Spine -24.639042 -8.292598 3.178767
Head -45.733551 -4.238280 -3.928485
LeftShoulder 1.731337 22.519349 10.497617
LeftArm 34.369313 32.470393 -50.692404
LeftForeArm 7.840375 0.000000 19.290699
LeftHand -22.603026 -0.000000 2.550973
LeftHandThumb1 -26.253704 0.000000 33.147579
RightShoulder -11.568412 8.895940 -28.512197
RightArm -15.742431 -1.206515 66.823896
RightForeArm -18.405194 -0.000000 37.059353
RightHand -2.189479 0.000000 -3.319259
RightHandThumb1 -24.326973 -0.000000 -32.862282
LeftUpLeg 9.578306 14.474779 8.205948
LeftLeg 4.912847 -0.000000 -0.000000
LeftFoot 23.832778 9.843419 -31.900939
LeftToeBase 3.906576 -0.000000 -0.000000
RightUpLeg -55.087058 -21.296427 -3.209645
RightLeg 10.873419 -0.000000 -0.000000
RightFoot -7.294168 -5.560534 -5.601380
RightToeBase -5.672645 -0.000000 0.000000
664
root -4.512042 34.336683 0.546070 55.121066 10.816396 23.638894
Spine -23.913072 -7.892374 2.727547
Head -45.225293 -4.649555 -3.609922
LeftShoulder 1.621148 22.484229 10.725443
LeftArm 34.165900 32.490554 -51.291596
LeftForeArm 7.748025 0.000000 19.349974
LeftHand -22.660728 -0.000000 2.796584
LeftHandThumb1 -26.253704 0.000000 33.147579
RightShoulder -11.393600 9.181540 -28.479139
RightArm -15.302093 -1.430580 67.343841
RightForeArm -18.731856 -0.000000 37.590632
RightHand -2.272525 -0.000000 -3.188179
RightHandThumb1 -24.326973 -0.000000 -32.862282
LeftUpLeg 8.554473 14.570077 6.933118
LeftLeg 3.542206 -0.000000 -0.000000
LeftFoot 21.836211 9.646743 -32.257521
LeftToeBase 3.509283 -0.000000 -0.000000
RightUpLeg -54.128043 -20.805593 -3.674358
RightLeg 10.923764 -0.000000 -0.000000
RightFoot -7.486622 -6.376665 -5.926123
RightToeBase -5.771525 -0.000000 0.000000
665
root -4.497132 34.298813 0.565040 54.330607 10.845496 23.554139
Spine -23.221438 -7.520001 2.239564
Head -44.691541 -5.053877 -3.318727
LeftShoulder 1.526925 22.449569 10.953277
LeftArm 33.879487 32.269661 -52.149792
LeftForeArm 7.904953 -0.000000 19.361576
LeftHand -22.698736 -0.000000 2.873726
LeftHandThumb1 -26.253704 0.000000 33.147579
RightShoulder -11.262898 9.455376 -28.458291
RightArm -14.932315 -1.699314 67.877959
RightForeArm -19.019132 -0.000000 38.153427
RightHand -2.175343 0.000000 -2.965834
RightHandThumb1 -24.326973 -0.000000 -32.862282
LeftUpLeg 7.523630 14.212295 5.542938
LeftLeg 2.119132 -0.000000 -0.000000
LeftFoot 19.805402 9.436225 -31.565296
LeftToeBase 2.592704 -0.000000 -0.000000
RightUpLeg -53.197363 -20.438601 -4.137202
RightLeg 10.960756 -0.000000 -0.000000
RightFoot -7.742988 -6.945188 -6.010198
RightToeBase -5.822218 -0.000000 0.000000
666
root -4.482291 34.262018 0.579156 53.520771 10.864976 23.483013
Spine -22.497318 -7.121777 1.736847
Head -44.207092 -5.442667 -3.109926
LeftShoulder 1.433314 22.415095 11.084651
LeftArm 33.660226 32.091430 -52.792554
LeftForeArm 7.762959 -0.000000 19.401623
LeftHand -22.607152 0.000000 2.977331
LeftHandThumb1 -26.253704 0.000000 33.147579
RightShoulder -11.154465 9.691743 -28.473167
RightArm -14.578127 -2.072022 68.480979
RightForeArm -19.182702 -0.000000 38.672841
RightHand -2.249556 -0.000000 -3.087161
RightHandThumb1 -24.326973 -0.000000 -32.862282
LeftUpLeg 6.466158 14.051722 4.204970
LeftLeg 0.891088 -0.000000 -0.000000
LeftFoot 17.688712 9.075228 -30.873825
LeftToeBase 2.882373 -0.000000 -0.000000
RightUpLeg -52.272185 -20.054953 -4.587760
RightLeg 11.002813 -0.000000 -0.000000
RightFoot -7.901948 -7.694039 -6.407126
RightToeBase -5.915547 -0.000000 0.000000
